ffmpeg started on 2025-06-19 at 10:51:06
Report written to "D:\Convert\FFMetrics\reports\psnr_report-6.txt"
Log level: 32
Command line:
ffmpeg -hide_banner -nostdin -i "G:\\\xc0\xed\xe8\xec\xe5\\[\xd2\xee\xef-4]\\RErideD - \xc4\xe5\xf0\xf0\xe8\xe4\xe0, \xef\xee\xea\xee\xf0\xe8\xe2\xf8\xe8\xe9 \xe2\xf0\xe5\xec\xff\\RErideD_Koku_Koe_no_Derrida_[10]_[AniLibria_TV]_[WEBRip_720p]_HEVC.mkv" -i "G:\\\xc0\xed\xe8\xec\xe5\\[\xd2\xee\xef-4]\\RErideD - \xc4\xe5\xf0\xf0\xe8\xe4\xe0, \xef\xee\xea\xee\xf0\xe8\xe2\xf8\xe8\xe9 \xe2\xf0\xe5\xec\xff\\RErideD_Koku_Koe_no_Derrida_[10]_[AniLibria_TV]_[WEBRip_720p].mkv" -lavfi "[0:v]settb=AVTB,setpts=PTS-STARTPTS,format=pix_fmts=yuv420p10,fps=24000/1001,scale=1280:720:flags=bicubic[main];[1:v]settb=AVTB,setpts=PTS-STARTPTS,format=pix_fmts=yuv420p,fps=24000/1001,scale=1280:720:flags=bicubic[ref];[main][ref]psnr=eof_action=endall:stats_file='D\\:/Convert/FFMetrics/logs/psnr_logfile-6.txt'" -f null -
Input #0, matroska,webm, from 'G:\Аниме\[Топ-4]\RErideD - Деррида, покоривший время\RErideD_Koku_Koe_no_Derrida_[10]_[AniLibria_TV]_[WEBRip_720p]_HEVC.mkv':
  Metadata:
    ENCODER         : Lavf61.7.100
  Duration: 00:23:40.09, start: -0.021000, bitrate: 595 kb/s
  Stream #0:0(jpn): Video: hevc (Main 10), yuv420p10le(tv, bt709, progressive), 1280x720 [SAR 1:1 DAR 16:9], 23.98 fps, 23.98 tbr, 1k tbn (default)
      Metadata:
        ENCODER         : Lavc61.19.100 libx265
        BPS             : 396918
        DURATION        : 00:23:40.002708333
        NUMBER_OF_FRAMES: 34046
        NUMBER_OF_BYTES : 70453183
        _STATISTICS_WRITING_APP: mkvpropedit v66.0.0 ('Josie') 64-bit
        _STATISTICS_WRITING_DATE_UTC: 2025-06-17 16:13:26
        _STATISTICS_TAGS: BPS DURATION NUMBER_OF_FRAMES NUMBER_OF_BYTES
  Stream #0:1(rus): Audio: aac (LC), 48000 Hz, stereo, fltp (default) (forced)
      Metadata:
        title           : AniLibria.TV
        ENCODER         : Lavc61.19.100 aac
        BPS             : 194432
        DURATION        : 00:23:40.031000000
        NUMBER_OF_FRAMES: 66565
        NUMBER_OF_BYTES : 34512575
        _STATISTICS_WRITING_APP: mkvpropedit v66.0.0 ('Josie') 64-bit
        _STATISTICS_WRITING_DATE_UTC: 2025-06-17 16:13:26
        _STATISTICS_TAGS: BPS DURATION NUMBER_OF_FRAMES NUMBER_OF_BYTES
  Stream #0:2(rus): Subtitle: ass (ssa) (default) (forced)
      Metadata:
        title           : Надписи
        BPS             : 8
        DURATION        : 00:19:35.030000000
        NUMBER_OF_FRAMES: 11
        NUMBER_OF_BYTES : 1256
        _STATISTICS_WRITING_APP: mkvpropedit v66.0.0 ('Josie') 64-bit
        _STATISTICS_WRITING_DATE_UTC: 2025-06-17 16:13:26
        _STATISTICS_TAGS: BPS DURATION NUMBER_OF_FRAMES NUMBER_OF_BYTES
  Stream #0:3(rus): Subtitle: ass (ssa)
      Metadata:
        title           : Полне субтитры
        BPS             : 139
        DURATION        : 00:23:37.000000000
        NUMBER_OF_FRAMES: 344
        NUMBER_OF_BYTES : 24779
        _STATISTICS_WRITING_APP: mkvpropedit v66.0.0 ('Josie') 64-bit
        _STATISTICS_WRITING_DATE_UTC: 2025-06-17 16:13:26
        _STATISTICS_TAGS: BPS DURATION NUMBER_OF_FRAMES NUMBER_OF_BYTES
Input #1, matroska,webm, from 'G:\Аниме\[Топ-4]\RErideD - Деррида, покоривший время\RErideD_Koku_Koe_no_Derrida_[10]_[AniLibria_TV]_[WEBRip_720p].mkv':
  Metadata:
    encoder         : libebml v1.4.2 + libmatroska v1.6.4
    creation_time   : 2024-12-15T11:01:47.000000Z
  Duration: 00:23:40.09, start: 0.000000, bitrate: 1514 kb/s
  Stream #1:0(jpn): Video: h264 (High), yuv420p(progressive), 1280x720 [SAR 1:1 DAR 16:9], 23.98 fps, 23.98 tbr, 1k tbn (default)
      Metadata:
        BPS             : 1312314
        DURATION        : 00:23:40.004000000
        NUMBER_OF_FRAMES: 34046
        NUMBER_OF_BYTES : 232936537
        _STATISTICS_WRITING_APP: mkvmerge v66.0.0 ('Josie') 64-bit
        _STATISTICS_WRITING_DATE_UTC: 2024-12-15 11:01:47
        _STATISTICS_TAGS: BPS DURATION NUMBER_OF_FRAMES NUMBER_OF_BYTES
  Stream #1:1(rus): Audio: aac (LC), 48000 Hz, stereo, fltp (default) (forced)
      Metadata:
        title           : AniLibria.TV
        BPS             : 195519
        DURATION        : 00:23:40.031000000
        NUMBER_OF_FRAMES: 66564
        NUMBER_OF_BYTES : 34705498
        _STATISTICS_WRITING_APP: mkvmerge v66.0.0 ('Josie') 64-bit
        _STATISTICS_WRITING_DATE_UTC: 2024-12-15 11:01:47
        _STATISTICS_TAGS: BPS DURATION NUMBER_OF_FRAMES NUMBER_OF_BYTES
  Stream #1:2(rus): Subtitle: ass (ssa) (default) (forced)
      Metadata:
        title           : Надписи
        BPS             : 8
        DURATION        : 00:19:35.030000000
        NUMBER_OF_FRAMES: 11
        NUMBER_OF_BYTES : 1256
        _STATISTICS_WRITING_APP: mkvmerge v66.0.0 ('Josie') 64-bit
        _STATISTICS_WRITING_DATE_UTC: 2024-12-15 11:01:47
        _STATISTICS_TAGS: BPS DURATION NUMBER_OF_FRAMES NUMBER_OF_BYTES
  Stream #1:3(rus): Subtitle: ass (ssa)
      Metadata:
        title           : Полне субтитры
        BPS             : 139
        DURATION        : 00:23:37.000000000
        NUMBER_OF_FRAMES: 344
        NUMBER_OF_BYTES : 24779
        _STATISTICS_WRITING_APP: mkvmerge v66.0.0 ('Josie') 64-bit
        _STATISTICS_WRITING_DATE_UTC: 2024-12-15 11:01:47
        _STATISTICS_TAGS: BPS DURATION NUMBER_OF_FRAMES NUMBER_OF_BYTES
  Stream #1:4: Attachment: ttf
      Metadata:
        filename        : OpenSans-Semibold.ttf
        mimetype        : application/x-truetype-font
  Stream #1:5: Attachment: ttf
      Metadata:
        filename        : v_MightyZeo2.0_v1.07.ttf
        mimetype        : application/x-truetype-font
  Stream #1:6: Attachment: ttf
      Metadata:
        filename        : OpenSans-Semibold.ttf
        mimetype        : application/x-truetype-font
  Stream #1:7: Attachment: ttf
      Metadata:
        filename        : v_MightyZeo2.0_v1.07.ttf
        mimetype        : application/x-truetype-font
  Stream #1:8: Attachment: ttf
      Metadata:
        filename        : OpenSans-Semibold.ttf
        mimetype        : application/x-truetype-font
Stream mapping:
  Stream #0:0 (hevc) -> settb:default
  Stream #1:0 (h264) -> settb:default
  psnr:default -> Stream #0:0 (wrapped_avframe)
  Stream #0:1 -> #0:1 (aac (native) -> pcm_s16le (native))
[swscaler @ 00000202dae7d800] No accelerated colorspace conversion found from yuv420p to bgr48le.
[swscaler @ 00000202db00dfc0] No accelerated colorspace conversion found from yuv420p to bgr48le.
[swscaler @ 00000202db1d9b00] No accelerated colorspace conversion found from yuv420p to bgr48le.
[swscaler @ 00000202db28eac0] No accelerated colorspace conversion found from yuv420p to bgr48le.
[swscaler @ 00000202db3a21c0] No accelerated colorspace conversion found from yuv420p to bgr48le.
[swscaler @ 00000202db445040] No accelerated colorspace conversion found from yuv420p to bgr48le.
[swscaler @ 00000202db4a0040] No accelerated colorspace conversion found from yuv420p to bgr48le.
[swscaler @ 00000202db4cc500] No accelerated colorspace conversion found from yuv420p to bgr48le.
[swscaler @ 00000202db52bec0] No accelerated colorspace conversion found from yuv420p to bgr48le.
[swscaler @ 00000202db5bae00] No accelerated colorspace conversion found from yuv420p to bgr48le.
[swscaler @ 00000202db617040] No accelerated colorspace conversion found from yuv420p to bgr48le.
[swscaler @ 00000202db684040] No accelerated colorspace conversion found from yuv420p to bgr48le.
[swscaler @ 00000202dfc700c0] No accelerated colorspace conversion found from yuv420p to bgr48le.
[swscaler @ 00000202dfcec040] No accelerated colorspace conversion found from yuv420p to bgr48le.
[swscaler @ 00000202db6f1d40] No accelerated colorspace conversion found from yuv420p to bgr48le.
[swscaler @ 00000202dfdb8040] No accelerated colorspace conversion found from yuv420p to bgr48le.
Output #0, null, to 'pipe:':
  Metadata:
    encoder         : Lavf61.7.100
  Stream #0:0: Video: wrapped_avframe, yuv420p10le(tv, bt709, progressive), 1280x720 [SAR 1:1 DAR 16:9], q=2-31, 200 kb/s, 23.98 fps, 23.98 tbn
      Metadata:
        encoder         : Lavc61.19.100 wrapped_avframe
  Stream #0:1(rus): Audio: pcm_s16le, 48000 Hz, stereo, s16, 1536 kb/s (default) (forced)
      Metadata:
        title           : AniLibria.TV
        _STATISTICS_TAGS: BPS DURATION NUMBER_OF_FRAMES NUMBER_OF_BYTES
        BPS             : 194432
        DURATION        : 00:23:40.031000000
        NUMBER_OF_FRAMES: 66565
        NUMBER_OF_BYTES : 34512575
        _STATISTICS_WRITING_APP: mkvpropedit v66.0.0 ('Josie') 64-bit
        _STATISTICS_WRITING_DATE_UTC: 2025-06-17 16:13:26
        encoder         : Lavc61.19.100 pcm_s16le
frame=   78 fps=0.0 q=-0.0 size=N/A time=00:00:03.25 bitrate=N/A speed=6.41x    frame=  180 fps=175 q=-0.0 size=N/A time=00:00:07.50 bitrate=N/A speed=7.28x    frame=  263 fps=171 q=-0.0 size=N/A time=00:00:10.96 bitrate=N/A speed=7.12x    frame=  360 fps=174 q=-0.0 size=N/A time=00:00:15.01 bitrate=N/A speed=7.27x    frame=  461 fps=179 q=-0.0 size=N/A time=00:00:19.22 bitrate=N/A speed=7.46x    frame=  557 fps=181 q=-0.0 size=N/A time=00:00:23.23 bitrate=N/A speed=7.53x    frame=  648 fps=179 q=-0.0 size=N/A time=00:00:27.02 bitrate=N/A speed=7.48x    frame=  749 fps=182 q=-0.0 size=N/A time=00:00:31.23 bitrate=N/A speed=7.58x    frame=  847 fps=182 q=-0.0 size=N/A time=00:00:35.32 bitrate=N/A speed=7.61x    frame=  940 fps=183 q=-0.0 size=N/A time=00:00:39.20 bitrate=N/A speed=7.62x    frame= 1032 fps=182 q=-0.0 size=N/A time=00:00:43.04 bitrate=N/A speed=7.59x    frame= 1128 fps=182 q=-0.0 size=N/A time=00:00:47.04 bitrate=N/A speed= 7.6x    frame= 1227 fps=183 q=-0.0 size=N/A time=00:00:51.17 bitrate=N/A speed=7.64x    frame= 1323 fps=184 q=-0.0 size=N/A time=00:00:55.18 bitrate=N/A speed=7.65x    frame= 1420 fps=184 q=-0.0 size=N/A time=00:00:59.22 bitrate=N/A speed=7.66x    frame= 1520 fps=184 q=-0.0 size=N/A time=00:01:03.39 bitrate=N/A speed=7.69x    frame= 1618 fps=185 q=-0.0 size=N/A time=00:01:07.48 bitrate=N/A speed= 7.7x    frame= 1716 fps=185 q=-0.0 size=N/A time=00:01:11.57 bitrate=N/A speed=7.71x    frame= 1813 fps=185 q=-0.0 size=N/A time=00:01:15.61 bitrate=N/A speed=7.72x    frame= 1913 fps=185 q=-0.0 size=N/A time=00:01:19.78 bitrate=N/A speed=7.73x    frame= 1999 fps=185 q=-0.0 size=N/A time=00:01:23.37 bitrate=N/A speed= 7.7x    frame= 2090 fps=184 q=-0.0 size=N/A time=00:01:27.17 bitrate=N/A speed=7.69x    frame= 2191 fps=185 q=-0.0 size=N/A time=00:01:31.38 bitrate=N/A speed=7.71x    frame= 2298 fps=186 q=-0.0 size=N/A time=00:01:35.84 bitrate=N/A speed=7.75x    frame= 2398 fps=186 q=-0.0 size=N/A time=00:01:40.01 bitrate=N/A speed=7.76x    frame= 2495 fps=186 q=-0.0 size=N/A time=00:01:44.06 bitrate=N/A speed=7.77x    frame= 2596 fps=187 q=-0.0 size=N/A time=00:01:48.27 bitrate=N/A speed=7.78x    frame= 2691 fps=186 q=-0.0 size=N/A time=00:01:52.23 bitrate=N/A speed=7.77x    frame= 2786 fps=186 q=-0.0 size=N/A time=00:01:56.19 bitrate=N/A speed=7.76x    frame= 2887 fps=187 q=-0.0 size=N/A time=00:02:00.41 bitrate=N/A speed=7.78x    frame= 2985 fps=187 q=-0.0 size=N/A time=00:02:04.49 bitrate=N/A speed=7.78x    frame= 3079 fps=187 q=-0.0 size=N/A time=00:02:08.41 bitrate=N/A speed=7.78x    frame= 3172 fps=186 q=-0.0 size=N/A time=00:02:12.29 bitrate=N/A speed=7.77x    frame= 3251 fps=185 q=-0.0 size=N/A time=00:02:15.59 bitrate=N/A speed=7.73x    frame= 3348 fps=185 q=-0.0 size=N/A time=00:02:19.63 bitrate=N/A speed=7.73x    frame= 3443 fps=185 q=-0.0 size=N/A time=00:02:23.60 bitrate=N/A speed=7.73x    frame= 3537 fps=185 q=-0.0 size=N/A time=00:02:27.52 bitrate=N/A speed=7.73x    frame= 3627 fps=185 q=-0.0 size=N/A time=00:02:31.27 bitrate=N/A speed=7.72x    frame= 3734 fps=186 q=-0.0 size=N/A time=00:02:35.73 bitrate=N/A speed=7.74x    frame= 3829 fps=186 q=-0.0 size=N/A time=00:02:39.70 bitrate=N/A speed=7.74x    frame= 3923 fps=185 q=-0.0 size=N/A time=00:02:43.62 bitrate=N/A speed=7.73x    frame= 4021 fps=186 q=-0.0 size=N/A time=00:02:47.70 bitrate=N/A speed=7.74x    frame= 4114 fps=185 q=-0.0 size=N/A time=00:02:51.58 bitrate=N/A speed=7.73x    frame= 4207 fps=185 q=-0.0 size=N/A time=00:02:55.46 bitrate=N/A speed=7.73x    frame= 4307 fps=185 q=-0.0 size=N/A time=00:02:59.63 bitrate=N/A speed=7.74x    frame= 4390 fps=185 q=-0.0 size=N/A time=00:03:03.09 bitrate=N/A speed=7.72x    frame= 4495 fps=185 q=-0.0 size=N/A time=00:03:07.47 bitrate=N/A speed=7.73x    frame= 4600 fps=186 q=-0.0 size=N/A time=00:03:11.85 bitrate=N/A speed=7.75x    frame= 4692 fps=186 q=-0.0 size=N/A time=00:03:15.69 bitrate=N/A speed=7.74x    frame= 4789 fps=186 q=-0.0 size=N/A time=00:03:19.74 bitrate=N/A speed=7.74x    frame= 4886 fps=186 q=-0.0 size=N/A time=00:03:23.78 bitrate=N/A speed=7.75x    frame= 4981 fps=186 q=-0.0 size=N/A time=00:03:27.74 bitrate=N/A speed=7.75x    frame= 5081 fps=186 q=-0.0 size=N/A time=00:03:31.92 bitrate=N/A speed=7.75x    frame= 5172 fps=186 q=-0.0 size=N/A time=00:03:35.71 bitrate=N/A speed=7.74x    frame= 5269 fps=186 q=-0.0 size=N/A time=00:03:39.76 bitrate=N/A speed=7.74x    frame= 5366 fps=186 q=-0.0 size=N/A time=00:03:43.80 bitrate=N/A speed=7.75x    frame= 5480 fps=186 q=-0.0 size=N/A time=00:03:48.56 bitrate=N/A speed=7.78x    frame= 5579 fps=186 q=-0.0 size=N/A time=00:03:52.69 bitrate=N/A speed=7.78x    frame= 5675 fps=186 q=-0.0 size=N/A time=00:03:56.69 bitrate=N/A speed=7.78x    frame= 5773 fps=186 q=-0.0 size=N/A time=00:04:00.78 bitrate=N/A speed=7.78x    frame= 5872 fps=187 q=-0.0 size=N/A time=00:04:04.91 bitrate=N/A speed=7.78x    frame= 5970 fps=187 q=-0.0 size=N/A time=00:04:08.99 bitrate=N/A speed=7.79x    frame= 6070 fps=187 q=-0.0 size=N/A time=00:04:13.16 bitrate=N/A speed=7.79x    frame= 6177 fps=187 q=-0.0 size=N/A time=00:04:17.63 bitrate=N/A speed= 7.8x    frame= 6270 fps=187 q=-0.0 size=N/A time=00:04:21.51 bitrate=N/A speed= 7.8x    frame= 6367 fps=187 q=-0.0 size=N/A time=00:04:25.55 bitrate=N/A speed= 7.8x    frame= 6471 fps=187 q=-0.0 size=N/A time=00:04:29.89 bitrate=N/A speed=7.81x    frame= 6562 fps=187 q=-0.0 size=N/A time=00:04:33.69 bitrate=N/A speed= 7.8x    frame= 6667 fps=187 q=-0.0 size=N/A time=00:04:38.06 bitrate=N/A speed=7.81x    frame= 6771 fps=188 q=-0.0 size=N/A time=00:04:42.40 bitrate=N/A speed=7.82x    frame= 6869 fps=188 q=-0.0 size=N/A time=00:04:46.49 bitrate=N/A speed=7.82x    frame= 6966 fps=188 q=-0.0 size=N/A time=00:04:50.54 bitrate=N/A speed=7.82x    frame= 7064 fps=188 q=-0.0 size=N/A time=00:04:54.62 bitrate=N/A speed=7.83x    frame= 7163 fps=188 q=-0.0 size=N/A time=00:04:58.75 bitrate=N/A speed=7.83x    frame= 7266 fps=188 q=-0.0 size=N/A time=00:05:03.05 bitrate=N/A speed=7.83x    frame= 7362 fps=188 q=-0.0 size=N/A time=00:05:07.05 bitrate=N/A speed=7.83x    frame= 7460 fps=188 q=-0.0 size=N/A time=00:05:11.14 bitrate=N/A speed=7.83x    frame= 7559 fps=188 q=-0.0 size=N/A time=00:05:15.27 bitrate=N/A speed=7.84x    frame= 7655 fps=188 q=-0.0 size=N/A time=00:05:19.27 bitrate=N/A speed=7.84x    frame= 7767 fps=188 q=-0.0 size=N/A time=00:05:23.94 bitrate=N/A speed=7.85x    frame= 7866 fps=188 q=-0.0 size=N/A time=00:05:28.07 bitrate=N/A speed=7.85x    frame= 7965 fps=188 q=-0.0 size=N/A time=00:05:32.20 bitrate=N/A speed=7.86x    frame= 8059 fps=188 q=-0.0 size=N/A time=00:05:36.12 bitrate=N/A speed=7.85x    frame= 8158 fps=188 q=-0.0 size=N/A time=00:05:40.25 bitrate=N/A speed=7.85x    frame= 8258 fps=188 q=-0.0 size=N/A time=00:05:44.42 bitrate=N/A speed=7.86x    frame= 8353 fps=188 q=-0.0 size=N/A time=00:05:48.38 bitrate=N/A speed=7.85x    frame= 8462 fps=189 q=-0.0 size=N/A time=00:05:52.93 bitrate=N/A speed=7.87x    frame= 8562 fps=189 q=-0.0 size=N/A time=00:05:57.10 bitrate=N/A speed=7.87x    frame= 8659 fps=189 q=-0.0 size=N/A time=00:06:01.15 bitrate=N/A speed=7.87x    frame= 8761 fps=189 q=-0.0 size=N/A time=00:06:05.40 bitrate=N/A speed=7.87x    frame= 8848 fps=189 q=-0.0 size=N/A time=00:06:09.03 bitrate=N/A speed=7.86x    frame= 8961 fps=189 q=-0.0 size=N/A time=00:06:13.74 bitrate=N/A speed=7.88x    frame= 9060 fps=189 q=-0.0 size=N/A time=00:06:17.87 bitrate=N/A speed=7.88x    frame= 9159 fps=189 q=-0.0 size=N/A time=00:06:22.00 bitrate=N/A speed=7.88x    frame= 9257 fps=189 q=-0.0 size=N/A time=00:06:26.09 bitrate=N/A speed=7.88x    frame= 9360 fps=189 q=-0.0 size=N/A time=00:06:30.39 bitrate=N/A speed=7.89x    frame= 9459 fps=189 q=-0.0 size=N/A time=00:06:34.51 bitrate=N/A speed=7.89x    frame= 9562 fps=189 q=-0.0 size=N/A time=00:06:38.81 bitrate=N/A speed=7.89x    frame= 9655 fps=189 q=-0.0 size=N/A time=00:06:42.69 bitrate=N/A speed=7.89x    frame= 9755 fps=189 q=-0.0 size=N/A time=00:06:46.86 bitrate=N/A speed=7.89x    frame= 9853 fps=189 q=-0.0 size=N/A time=00:06:50.95 bitrate=N/A speed=7.89x    frame= 9963 fps=189 q=-0.0 size=N/A time=00:06:55.54 bitrate=N/A speed= 7.9x    frame=10064 fps=189 q=-0.0 size=N/A time=00:06:59.75 bitrate=N/A speed= 7.9x    frame=10166 fps=190 q=-0.0 size=N/A time=00:07:04.00 bitrate=N/A speed=7.91x    frame=10268 fps=190 q=-0.0 size=N/A time=00:07:08.26 bitrate=N/A speed=7.91x    frame=10361 fps=190 q=-0.0 size=N/A time=00:07:12.14 bitrate=N/A speed=7.91x    frame=10471 fps=190 q=-0.0 size=N/A time=00:07:16.72 bitrate=N/A speed=7.91x    frame=10570 fps=190 q=-0.0 size=N/A time=00:07:20.85 bitrate=N/A speed=7.91x    frame=10669 fps=190 q=-0.0 size=N/A time=00:07:24.98 bitrate=N/A speed=7.92x    frame=10771 fps=190 q=-0.0 size=N/A time=00:07:29.24 bitrate=N/A speed=7.92x    frame=10868 fps=190 q=-0.0 size=N/A time=00:07:33.28 bitrate=N/A speed=7.92x    frame=10962 fps=190 q=-0.0 size=N/A time=00:07:37.20 bitrate=N/A speed=7.92x    frame=11070 fps=190 q=-0.0 size=N/A time=00:07:41.71 bitrate=N/A speed=7.92x    frame=11171 fps=190 q=-0.0 size=N/A time=00:07:45.92 bitrate=N/A speed=7.93x    frame=11275 fps=190 q=-0.0 size=N/A time=00:07:50.26 bitrate=N/A speed=7.93x    frame=11368 fps=190 q=-0.0 size=N/A time=00:07:54.14 bitrate=N/A speed=7.93x    frame=11469 fps=190 q=-0.0 size=N/A time=00:07:58.35 bitrate=N/A speed=7.93x    frame=11559 fps=190 q=-0.0 size=N/A time=00:08:02.10 bitrate=N/A speed=7.92x    frame=11669 fps=190 q=-0.0 size=N/A time=00:08:06.69 bitrate=N/A speed=7.93x    frame=11769 fps=190 q=-0.0 size=N/A time=00:08:10.86 bitrate=N/A speed=7.93x    frame=11871 fps=190 q=-0.0 size=N/A time=00:08:15.11 bitrate=N/A speed=7.93x    frame=11967 fps=190 q=-0.0 size=N/A time=00:08:19.12 bitrate=N/A speed=7.93x    frame=12069 fps=190 q=-0.0 size=N/A time=00:08:23.37 bitrate=N/A speed=7.93x    frame=12163 fps=190 q=-0.0 size=N/A time=00:08:27.29 bitrate=N/A speed=7.93x    frame=12259 fps=190 q=-0.0 size=N/A time=00:08:31.30 bitrate=N/A speed=7.93x    frame=12370 fps=190 q=-0.0 size=N/A time=00:08:35.93 bitrate=N/A speed=7.94x    frame=12464 fps=190 q=-0.0 size=N/A time=00:08:39.85 bitrate=N/A speed=7.94x    frame=12567 fps=190 q=-0.0 size=N/A time=00:08:44.14 bitrate=N/A speed=7.94x    frame=12672 fps=190 q=-0.0 size=N/A time=00:08:48.52 bitrate=N/A speed=7.94x    frame=12758 fps=190 q=-0.0 size=N/A time=00:08:52.11 bitrate=N/A speed=7.94x    frame=12871 fps=191 q=-0.0 size=N/A time=00:08:56.82 bitrate=N/A speed=7.95x    frame=12975 fps=191 q=-0.0 size=N/A time=00:09:01.16 bitrate=N/A speed=7.95x    frame=13060 fps=190 q=-0.0 size=N/A time=00:09:04.71 bitrate=N/A speed=7.94x    frame=13157 fps=190 q=-0.0 size=N/A time=00:09:08.75 bitrate=N/A speed=7.94x    frame=13266 fps=191 q=-0.0 size=N/A time=00:09:13.30 bitrate=N/A speed=7.95x    frame=13373 fps=191 q=-0.0 size=N/A time=00:09:17.76 bitrate=N/A speed=7.95x    frame=13472 fps=191 q=-0.0 size=N/A time=00:09:21.89 bitrate=N/A speed=7.95x    frame=13568 fps=191 q=-0.0 size=N/A time=00:09:25.89 bitrate=N/A speed=7.95x    frame=13666 fps=191 q=-0.0 size=N/A time=00:09:29.98 bitrate=N/A speed=7.95x    frame=13774 fps=191 q=-0.0 size=N/A time=00:09:34.49 bitrate=N/A speed=7.96x    frame=13871 fps=191 q=-0.0 size=N/A time=00:09:38.53 bitrate=N/A speed=7.96x    frame=13959 fps=191 q=-0.0 size=N/A time=00:09:42.20 bitrate=N/A speed=7.95x    frame=14073 fps=191 q=-0.0 size=N/A time=00:09:46.96 bitrate=N/A speed=7.96x    frame=14172 fps=191 q=-0.0 size=N/A time=00:09:51.09 bitrate=N/A speed=7.96x    frame=14255 fps=191 q=-0.0 size=N/A time=00:09:54.55 bitrate=N/A speed=7.95x    frame=14365 fps=191 q=-0.0 size=N/A time=00:09:59.14 bitrate=N/A speed=7.96x    frame=14474 fps=191 q=-0.0 size=N/A time=00:10:03.68 bitrate=N/A speed=7.96x    frame=14575 fps=191 q=-0.0 size=N/A time=00:10:07.89 bitrate=N/A speed=7.97x    frame=14674 fps=191 q=-0.0 size=N/A time=00:10:12.02 bitrate=N/A speed=7.97x    frame=14781 fps=191 q=-0.0 size=N/A time=00:10:16.49 bitrate=N/A speed=7.97x    frame=14872 fps=191 q=-0.0 size=N/A time=00:10:20.28 bitrate=N/A speed=7.97x    frame=14972 fps=191 q=-0.0 size=N/A time=00:10:24.45 bitrate=N/A speed=7.97x    frame=15077 fps=191 q=-0.0 size=N/A time=00:10:28.83 bitrate=N/A speed=7.97x    frame=15173 fps=191 q=-0.0 size=N/A time=00:10:32.84 bitrate=N/A speed=7.97x    frame=15275 fps=191 q=-0.0 size=N/A time=00:10:37.09 bitrate=N/A speed=7.97x    frame=15375 fps=191 q=-0.0 size=N/A time=00:10:41.26 bitrate=N/A speed=7.97x    frame=15470 fps=191 q=-0.0 size=N/A time=00:10:45.22 bitrate=N/A speed=7.97x    frame=15577 fps=191 q=-0.0 size=N/A time=00:10:49.69 bitrate=N/A speed=7.97x    frame=15674 fps=191 q=-0.0 size=N/A time=00:10:53.73 bitrate=N/A speed=7.97x    frame=15773 fps=191 q=-0.0 size=N/A time=00:10:57.86 bitrate=N/A speed=7.97x    frame=15863 fps=191 q=-0.0 size=N/A time=00:11:01.61 bitrate=N/A speed=7.97x    frame=15971 fps=191 q=-0.0 size=N/A time=00:11:06.12 bitrate=N/A speed=7.97x    frame=16071 fps=191 q=-0.0 size=N/A time=00:11:10.29 bitrate=N/A speed=7.97x    frame=16170 fps=191 q=-0.0 size=N/A time=00:11:14.42 bitrate=N/A speed=7.97x    frame=16269 fps=191 q=-0.0 size=N/A time=00:11:18.55 bitrate=N/A speed=7.97x    frame=16369 fps=191 q=-0.0 size=N/A time=00:11:22.72 bitrate=N/A speed=7.98x    frame=16472 fps=191 q=-0.0 size=N/A time=00:11:27.01 bitrate=N/A speed=7.98x    frame=16573 fps=191 q=-0.0 size=N/A time=00:11:31.23 bitrate=N/A speed=7.98x    frame=16660 fps=191 q=-0.0 size=N/A time=00:11:34.86 bitrate=N/A speed=7.97x    frame=16762 fps=191 q=-0.0 size=N/A time=00:11:39.11 bitrate=N/A speed=7.97x    frame=16865 fps=191 q=-0.0 size=N/A time=00:11:43.41 bitrate=N/A speed=7.98x    frame=16962 fps=191 q=-0.0 size=N/A time=00:11:47.45 bitrate=N/A speed=7.98x    frame=17056 fps=191 q=-0.0 size=N/A time=00:11:51.37 bitrate=N/A speed=7.97x    frame=17159 fps=191 q=-0.0 size=N/A time=00:11:55.67 bitrate=N/A speed=7.98x    frame=17257 fps=191 q=-0.0 size=N/A time=00:11:59.76 bitrate=N/A speed=7.98x    frame=17351 fps=191 q=-0.0 size=N/A time=00:12:03.68 bitrate=N/A speed=7.97x    frame=17453 fps=191 q=-0.0 size=N/A time=00:12:07.93 bitrate=N/A speed=7.98x    frame=17541 fps=191 q=-0.0 size=N/A time=00:12:11.60 bitrate=N/A speed=7.97x    frame=17646 fps=191 q=-0.0 size=N/A time=00:12:15.98 bitrate=N/A speed=7.97x    frame=17744 fps=191 q=-0.0 size=N/A time=00:12:20.07 bitrate=N/A speed=7.97x    frame=17833 fps=191 q=-0.0 size=N/A time=00:12:23.78 bitrate=N/A speed=7.97x    frame=17944 fps=191 q=-0.0 size=N/A time=00:12:28.41 bitrate=N/A speed=7.97x    frame=18045 fps=191 q=-0.0 size=N/A time=00:12:32.62 bitrate=N/A speed=7.97x    frame=18143 fps=191 q=-0.0 size=N/A time=00:12:36.71 bitrate=N/A speed=7.97x    frame=18238 fps=191 q=-0.0 size=N/A time=00:12:40.67 bitrate=N/A speed=7.97x    frame=18338 fps=191 q=-0.0 size=N/A time=00:12:44.84 bitrate=N/A speed=7.97x    frame=18441 fps=191 q=-0.0 size=N/A time=00:12:49.14 bitrate=N/A speed=7.98x    frame=18526 fps=191 q=-0.0 size=N/A time=00:12:52.68 bitrate=N/A speed=7.97x    frame=18629 fps=191 q=-0.0 size=N/A time=00:12:56.98 bitrate=N/A speed=7.97x    frame=18735 fps=191 q=-0.0 size=N/A time=00:13:01.40 bitrate=N/A speed=7.98x    frame=18834 fps=191 q=-0.0 size=N/A time=00:13:05.53 bitrate=N/A speed=7.98x    frame=18943 fps=191 q=-0.0 size=N/A time=00:13:10.08 bitrate=N/A speed=7.98x    frame=19044 fps=191 q=-0.0 size=N/A time=00:13:14.29 bitrate=N/A speed=7.98x    frame=19142 fps=191 q=-0.0 size=N/A time=00:13:18.38 bitrate=N/A speed=7.98x    frame=19240 fps=191 q=-0.0 size=N/A time=00:13:22.46 bitrate=N/A speed=7.98x    frame=19330 fps=191 q=-0.0 size=N/A time=00:13:26.22 bitrate=N/A speed=7.98x    frame=19445 fps=191 q=-0.0 size=N/A time=00:13:31.01 bitrate=N/A speed=7.98x    frame=19543 fps=191 q=-0.0 size=N/A time=00:13:35.10 bitrate=N/A speed=7.98x    frame=19639 fps=191 q=-0.0 size=N/A time=00:13:39.10 bitrate=N/A speed=7.98x    frame=19739 fps=191 q=-0.0 size=N/A time=00:13:43.28 bitrate=N/A speed=7.98x    frame=19841 fps=191 q=-0.0 size=N/A time=00:13:47.53 bitrate=N/A speed=7.98x    frame=19942 fps=191 q=-0.0 size=N/A time=00:13:51.74 bitrate=N/A speed=7.98x    frame=20039 fps=191 q=-0.0 size=N/A time=00:13:55.79 bitrate=N/A speed=7.98x    frame=20139 fps=191 q=-0.0 size=N/A time=00:13:59.96 bitrate=N/A speed=7.99x    frame=20230 fps=191 q=-0.0 size=N/A time=00:14:03.75 bitrate=N/A speed=7.98x    frame=20334 fps=191 q=-0.0 size=N/A time=00:14:08.09 bitrate=N/A speed=7.98x    frame=20433 fps=191 q=-0.0 size=N/A time=00:14:12.22 bitrate=N/A speed=7.98x    frame=20533 fps=191 q=-0.0 size=N/A time=00:14:16.39 bitrate=N/A speed=7.98x    frame=20628 fps=191 q=-0.0 size=N/A time=00:14:20.35 bitrate=N/A speed=7.98x    frame=20731 fps=191 q=-0.0 size=N/A time=00:14:24.65 bitrate=N/A speed=7.98x    frame=20830 fps=191 q=-0.0 size=N/A time=00:14:28.78 bitrate=N/A speed=7.98x    frame=20917 fps=191 q=-0.0 size=N/A time=00:14:32.41 bitrate=N/A speed=7.98x    frame=21031 fps=191 q=-0.0 size=N/A time=00:14:37.16 bitrate=N/A speed=7.99x    frame=21129 fps=191 q=-0.0 size=N/A time=00:14:41.25 bitrate=N/A speed=7.99x    frame=21233 fps=192 q=-0.0 size=N/A time=00:14:45.59 bitrate=N/A speed=7.99x    frame=21333 fps=192 q=-0.0 size=N/A time=00:14:49.76 bitrate=N/A speed=7.99x    frame=21433 fps=192 q=-0.0 size=N/A time=00:14:53.93 bitrate=N/A speed=7.99x    frame=21527 fps=191 q=-0.0 size=N/A time=00:14:57.85 bitrate=N/A speed=7.99x    frame=21633 fps=192 q=-0.0 size=N/A time=00:15:02.27 bitrate=N/A speed=7.99x    frame=21720 fps=191 q=-0.0 size=N/A time=00:15:05.90 bitrate=N/A speed=7.98x    frame=21826 fps=192 q=-0.0 size=N/A time=00:15:10.32 bitrate=N/A speed=7.99x    frame=21915 fps=191 q=-0.0 size=N/A time=00:15:14.03 bitrate=N/A speed=7.98x    frame=22028 fps=192 q=-0.0 size=N/A time=00:15:18.75 bitrate=N/A speed=7.99x    frame=22128 fps=192 q=-0.0 size=N/A time=00:15:22.92 bitrate=N/A speed=7.99x    frame=22226 fps=192 q=-0.0 size=N/A time=00:15:27.00 bitrate=N/A speed=7.99x    frame=22327 fps=192 q=-0.0 size=N/A time=00:15:31.22 bitrate=N/A speed=7.99x    frame=22429 fps=192 q=-0.0 size=N/A time=00:15:35.47 bitrate=N/A speed=7.99x    frame=22520 fps=192 q=-0.0 size=N/A time=00:15:39.27 bitrate=N/A speed=7.99x    frame=22625 fps=192 q=-0.0 size=N/A time=00:15:43.65 bitrate=N/A speed=7.99x    frame=22723 fps=192 q=-0.0 size=N/A time=00:15:47.73 bitrate=N/A speed=7.99x    frame=22822 fps=192 q=-0.0 size=N/A time=00:15:51.86 bitrate=N/A speed=7.99x    frame=22930 fps=192 q=-0.0 size=N/A time=00:15:56.37 bitrate=N/A speed=7.99x    frame=23031 fps=192 q=-0.0 size=N/A time=00:16:00.58 bitrate=N/A speed=7.99x    frame=23117 fps=192 q=-0.0 size=N/A time=00:16:04.17 bitrate=N/A speed=7.99x    frame=23229 fps=192 q=-0.0 size=N/A time=00:16:08.84 bitrate=N/A speed=7.99x    frame=23326 fps=192 q=-0.0 size=N/A time=00:16:12.88 bitrate=N/A speed=7.99x    frame=23425 fps=192 q=-0.0 size=N/A time=00:16:17.01 bitrate=N/A speed=7.99x    frame=23527 fps=192 q=-0.0 size=N/A time=00:16:21.27 bitrate=N/A speed=7.99x    frame=23633 fps=192 q=-0.0 size=N/A time=00:16:25.69 bitrate=N/A speed=   8x    frame=23734 fps=192 q=-0.0 size=N/A time=00:16:29.90 bitrate=N/A speed=   8x    frame=23835 fps=192 q=-0.0 size=N/A time=00:16:34.11 bitrate=N/A speed=   8x    frame=23934 fps=192 q=-0.0 size=N/A time=00:16:38.24 bitrate=N/A speed=   8x    frame=24033 fps=192 q=-0.0 size=N/A time=00:16:42.37 bitrate=N/A speed=   8x    frame=24134 fps=192 q=-0.0 size=N/A time=00:16:46.58 bitrate=N/A speed=   8x    frame=24223 fps=192 q=-0.0 size=N/A time=00:16:50.30 bitrate=N/A speed=   8x    frame=24326 fps=192 q=-0.0 size=N/A time=00:16:54.59 bitrate=N/A speed=   8x    frame=24417 fps=192 q=-0.0 size=N/A time=00:16:58.39 bitrate=N/A speed=7.99x    frame=24527 fps=192 q=-0.0 size=N/A time=00:17:02.98 bitrate=N/A speed=   8x    frame=24627 fps=192 q=-0.0 size=N/A time=00:17:07.15 bitrate=N/A speed=   8x    frame=24713 fps=192 q=-0.0 size=N/A time=00:17:10.73 bitrate=N/A speed=7.99x    frame=24817 fps=192 q=-0.0 size=N/A time=00:17:15.07 bitrate=N/A speed=   8x    frame=24918 fps=192 q=-0.0 size=N/A time=00:17:19.28 bitrate=N/A speed=   8x    frame=25020 fps=192 q=-0.0 size=N/A time=00:17:23.54 bitrate=N/A speed=   8x    frame=25121 fps=192 q=-0.0 size=N/A time=00:17:27.75 bitrate=N/A speed=   8x    frame=25224 fps=192 q=-0.0 size=N/A time=00:17:32.05 bitrate=N/A speed=   8x    frame=25324 fps=192 q=-0.0 size=N/A time=00:17:36.22 bitrate=N/A speed=   8x    frame=25420 fps=192 q=-0.0 size=N/A time=00:17:40.22 bitrate=N/A speed=   8x    frame=25517 fps=192 q=-0.0 size=N/A time=00:17:44.27 bitrate=N/A speed=   8x    frame=25618 fps=192 q=-0.0 size=N/A time=00:17:48.48 bitrate=N/A speed=   8x    frame=25710 fps=192 q=-0.0 size=N/A time=00:17:52.32 bitrate=N/A speed=   8x    frame=25809 fps=192 q=-0.0 size=N/A time=00:17:56.45 bitrate=N/A speed=   8x    frame=25897 fps=192 q=-0.0 size=N/A time=00:18:00.12 bitrate=N/A speed=7.99x    frame=26002 fps=192 q=-0.0 size=N/A time=00:18:04.50 bitrate=N/A speed=7.99x    frame=26104 fps=192 q=-0.0 size=N/A time=00:18:08.75 bitrate=N/A speed=7.99x    frame=26194 fps=192 q=-0.0 size=N/A time=00:18:12.50 bitrate=N/A speed=7.99x    frame=26293 fps=192 q=-0.0 size=N/A time=00:18:16.63 bitrate=N/A speed=7.99x    frame=26402 fps=192 q=-0.0 size=N/A time=00:18:21.18 bitrate=N/A speed=7.99x    frame=26489 fps=192 q=-0.0 size=N/A time=00:18:24.81 bitrate=N/A speed=7.99x    frame=26596 fps=192 q=-0.0 size=N/A time=00:18:29.27 bitrate=N/A speed=7.99x    frame=26693 fps=192 q=-0.0 size=N/A time=00:18:33.32 bitrate=N/A speed=7.99x    frame=26799 fps=192 q=-0.0 size=N/A time=00:18:37.74 bitrate=N/A speed=   8x    frame=26893 fps=192 q=-0.0 size=N/A time=00:18:41.66 bitrate=N/A speed=7.99x    frame=26993 fps=192 q=-0.0 size=N/A time=00:18:45.83 bitrate=N/A speed=7.99x    frame=27085 fps=192 q=-0.0 size=N/A time=00:18:49.67 bitrate=N/A speed=7.99x    frame=27190 fps=192 q=-0.0 size=N/A time=00:18:54.04 bitrate=N/A speed=7.99x    frame=27279 fps=192 q=-0.0 size=N/A time=00:18:57.76 bitrate=N/A speed=7.99x    frame=27388 fps=192 q=-0.0 size=N/A time=00:19:02.30 bitrate=N/A speed=7.99x    frame=27484 fps=192 q=-0.0 size=N/A time=00:19:06.31 bitrate=N/A speed=7.99x    frame=27587 fps=192 q=-0.0 size=N/A time=00:19:10.60 bitrate=N/A speed=7.99x    frame=27690 fps=192 q=-0.0 size=N/A time=00:19:14.90 bitrate=N/A speed=   8x    frame=27790 fps=192 q=-0.0 size=N/A time=00:19:19.07 bitrate=N/A speed=   8x    frame=27893 fps=192 q=-0.0 size=N/A time=00:19:23.37 bitrate=N/A speed=   8x    frame=27992 fps=192 q=-0.0 size=N/A time=00:19:27.49 bitrate=N/A speed=   8x    frame=28088 fps=192 q=-0.0 size=N/A time=00:19:31.50 bitrate=N/A speed=   8x    frame=28186 fps=192 q=-0.0 size=N/A time=00:19:35.59 bitrate=N/A speed=   8x    frame=28286 fps=192 q=-0.0 size=N/A time=00:19:39.76 bitrate=N/A speed=   8x    frame=28384 fps=192 q=-0.0 size=N/A time=00:19:43.84 bitrate=N/A speed=   8x    frame=28487 fps=192 q=-0.0 size=N/A time=00:19:48.14 bitrate=N/A speed=   8x    frame=28585 fps=192 q=-0.0 size=N/A time=00:19:52.23 bitrate=N/A speed=   8x    frame=28683 fps=192 q=-0.0 size=N/A time=00:19:56.32 bitrate=N/A speed=   8x    frame=28784 fps=192 q=-0.0 size=N/A time=00:20:00.53 bitrate=N/A speed=   8x    frame=28882 fps=192 q=-0.0 size=N/A time=00:20:04.62 bitrate=N/A speed=   8x    frame=28972 fps=192 q=-0.0 size=N/A time=00:20:08.37 bitrate=N/A speed=   8x    frame=29069 fps=192 q=-0.0 size=N/A time=00:20:12.41 bitrate=N/A speed=7.99x    frame=29163 fps=192 q=-0.0 size=N/A time=00:20:16.34 bitrate=N/A speed=7.99x    frame=29264 fps=192 q=-0.0 size=N/A time=00:20:20.55 bitrate=N/A speed=7.99x    frame=29371 fps=192 q=-0.0 size=N/A time=00:20:25.01 bitrate=N/A speed=   8x    frame=29457 fps=192 q=-0.0 size=N/A time=00:20:28.60 bitrate=N/A speed=7.99x    frame=29569 fps=192 q=-0.0 size=N/A time=00:20:33.27 bitrate=N/A speed=   8x    frame=29676 fps=192 q=-0.0 size=N/A time=00:20:37.73 bitrate=N/A speed=   8x    frame=29769 fps=192 q=-0.0 size=N/A time=00:20:41.61 bitrate=N/A speed=   8x    frame=29871 fps=192 q=-0.0 size=N/A time=00:20:45.86 bitrate=N/A speed=   8x    frame=29973 fps=192 q=-0.0 size=N/A time=00:20:50.12 bitrate=N/A speed=   8x    frame=30073 fps=192 q=-0.0 size=N/A time=00:20:54.29 bitrate=N/A speed=   8x    frame=30172 fps=192 q=-0.0 size=N/A time=00:20:58.42 bitrate=N/A speed=   8x    frame=30275 fps=192 q=-0.0 size=N/A time=00:21:02.71 bitrate=N/A speed=   8x    frame=30375 fps=192 q=-0.0 size=N/A time=00:21:06.89 bitrate=N/A speed=   8x    frame=30473 fps=192 q=-0.0 size=N/A time=00:21:10.97 bitrate=N/A speed=   8x    frame=30573 fps=192 q=-0.0 size=N/A time=00:21:15.14 bitrate=N/A speed=   8x    frame=30678 fps=192 q=-0.0 size=N/A time=00:21:19.52 bitrate=N/A speed=   8x    frame=30773 fps=192 q=-0.0 size=N/A time=00:21:23.49 bitrate=N/A speed=   8x    frame=30878 fps=192 q=-0.0 size=N/A time=00:21:27.86 bitrate=N/A speed=   8x    frame=30979 fps=192 q=-0.0 size=N/A time=00:21:32.08 bitrate=N/A speed=   8x    frame=31080 fps=192 q=-0.0 size=N/A time=00:21:36.29 bitrate=N/A speed=   8x    frame=31169 fps=192 q=-0.0 size=N/A time=00:21:40.00 bitrate=N/A speed=   8x    frame=31275 fps=192 q=-0.0 size=N/A time=00:21:44.42 bitrate=N/A speed=   8x    frame=31377 fps=192 q=-0.0 size=N/A time=00:21:48.68 bitrate=N/A speed=   8x    frame=31475 fps=192 q=-0.0 size=N/A time=00:21:52.76 bitrate=N/A speed=   8x    frame=31571 fps=192 q=-0.0 size=N/A time=00:21:56.77 bitrate=N/A speed=   8x    frame=31672 fps=192 q=-0.0 size=N/A time=00:22:00.98 bitrate=N/A speed=   8x    frame=31768 fps=192 q=-0.0 size=N/A time=00:22:04.99 bitrate=N/A speed=   8x    frame=31871 fps=192 q=-0.0 size=N/A time=00:22:09.28 bitrate=N/A speed=   8x    frame=31961 fps=192 q=-0.0 size=N/A time=00:22:13.04 bitrate=N/A speed=   8x    frame=32059 fps=192 q=-0.0 size=N/A time=00:22:17.12 bitrate=N/A speed=   8x    frame=32161 fps=192 q=-0.0 size=N/A time=00:22:21.38 bitrate=N/A speed=   8x    frame=32258 fps=192 q=-0.0 size=N/A time=00:22:25.42 bitrate=N/A speed=   8x    frame=32366 fps=192 q=-0.0 size=N/A time=00:22:29.93 bitrate=N/A speed=   8x    frame=32463 fps=192 q=-0.0 size=N/A time=00:22:33.97 bitrate=N/A speed=   8x    frame=32564 fps=192 q=-0.0 size=N/A time=00:22:38.19 bitrate=N/A speed=   8x    frame=32646 fps=192 q=-0.0 size=N/A time=00:22:41.61 bitrate=N/A speed=   8x    frame=32761 fps=192 q=-0.0 size=N/A time=00:22:46.40 bitrate=N/A speed=   8x    frame=32857 fps=192 q=-0.0 size=N/A time=00:22:50.41 bitrate=N/A speed=   8x    frame=32957 fps=192 q=-0.0 size=N/A time=00:22:54.58 bitrate=N/A speed=   8x    frame=33053 fps=192 q=-0.0 size=N/A time=00:22:58.58 bitrate=N/A speed=   8x    frame=33150 fps=192 q=-0.0 size=N/A time=00:23:02.63 bitrate=N/A speed=   8x    frame=33239 fps=192 q=-0.0 size=N/A time=00:23:06.34 bitrate=N/A speed=   8x    frame=33344 fps=192 q=-0.0 size=N/A time=00:23:10.72 bitrate=N/A speed=   8x    frame=33442 fps=192 q=-0.0 size=N/A time=00:23:14.81 bitrate=N/A speed=   8x    frame=33539 fps=192 q=-0.0 size=N/A time=00:23:18.85 bitrate=N/A speed=   8x    frame=33646 fps=192 q=-0.0 size=N/A time=00:23:23.31 bitrate=N/A speed=   8x    frame=33748 fps=192 q=-0.0 size=N/A time=00:23:27.57 bitrate=N/A speed=   8x    frame=33838 fps=192 q=-0.0 size=N/A time=00:23:31.32 bitrate=N/A speed=   8x    frame=33946 fps=192 q=-0.0 size=N/A time=00:23:35.83 bitrate=N/A speed=   8x    [Parsed_psnr_10 @ 00000202cf63ba80] PSNR y:46.294773 u:51.108773 v:50.586309 average:47.353159 min:36.303517 max:inf
[out#0/null @ 00000202cef60480] video:14629KiB audio:266260KiB subtitle:0KiB other streams:0KiB global headers:0KiB muxing overhead: unknown
frame=34046 fps=192 q=-0.0 Lsize=N/A time=00:23:40.00 bitrate=N/A speed=   8x    
